# xmcd
#
# Track frame offsets:
#	183
#	21155
#	35495
#	48680
#	61828
#	75888
#	89980
#	108625
#	122983
#	142453
#	162148
#	179888
#	197745
#	213545
#	231213
#
# Disc length: 3253 seconds
#
# Revision: 1
# Processed by: cddbd v1.4PL0 Copyright (c) Steve Scherf et al.
# Submitted via: audiograbber 1.82.01
#
DISCID=e60cb30f
DTITLE=Gray, Dobie - Drift Away with Dobie Gray
DYEAR=1996
DGENRE=Soul
TTITLE0=Drift Away
TTITLE1=I Can See Clearly Now
TTITLE2=It's Over
TTITLE3=Cupid
TTITLE4=Loving Arms
TTITLE5=Slip Away
TTITLE6=It's Not Because We Didn't Try
TTITLE7=Ain't That Good News
TTITLE8=Lean On Me
TTITLE9=We Had It All
TTITLE10=If I Ever Needed You
TTITLE11=Streets Of Fire
TTITLE12=I Can Live With That
TTITLE13=I'm Only Speaking My Heart
TTITLE14=The "In" Crowd
EXTD=
EXTT0=
EXTT1=
EXTT2=
EXTT3=
EXTT4=
EXTT5=
EXTT6=
EXTT7=
EXTT8=
EXTT9=
EXTT10=
EXTT11=
EXTT12=
EXTT13=
EXTT14=
PLAYORDER=
